<?xml version="1.0" encoding="UTF-8" standalone="no"?>
<!DOCTYPE svg PUBLIC "-//W3C//DTD SVG 20010904//EN"
"http://www.w3.org/TR/2001/REC-SVG-20010904/DTD/svg10.dtd">
<!-- Created with Sodipodi ("http://www.sodipodi.com/") -->
<svg
   width="600"
   height="480"
   viewBox="0 0 600 480"
   id="svg602"
   sodipodi:version="0.32"
   sodipodi:docname="BesselY_plot.svg"
   sodipodi:docbase="/home/alejo"
   inkscape:version="0.40"
   xmlns="http://www.w3.org/2000/svg"
   xmlns:cc="http://web.resource.org/cc/"
   xmlns:inkscape="http://www.inkscape.org/namespaces/inkscape"
   xmlns:sodipodi="http://sodipodi.sourceforge.net/DTD/sodipodi-0.dtd"
   xmlns:rdf="http://www.w3.org/1999/02/22-rdf-syntax-ns#"
   xmlns:dc="http://purl.org/dc/elements/1.1/"
   xmlns:xlink="http://www.w3.org/1999/xlink">
  <metadata
     id="metadata107">
    <rdf:RDF
       id="RDF108">
      <cc:Work
         rdf:about=""
         id="Work109">
        <dc:format
           id="format110">image/svg+xml</dc:format>
        <dc:type
           id="type112"
           rdf:resource="http://purl.org/dc/dcmitype/StillImage" />
      </cc:Work>
    </rdf:RDF>
  </metadata>
  <sodipodi:namedview
     id="base"
     inkscape:zoom="1.3331909"
     inkscape:cx="240.00000"
     inkscape:cy="192.00000"
     inkscape:window-width="1214"
     inkscape:window-height="767"
     inkscape:window-x="2"
     inkscape:window-y="33"
     inkscape:current-layer="svg602" />
  <desc
     id="desc603">Сделано при помощи GNUPLOT 4.0 с количеством заплаток 0 </desc>
  <defs
     id="defs604">
    <circle
       id="gpDot"
       r="1" />
    <path
       id="gpPt0"
       style="stroke-width:0.222"
       d="M-1,0 h2 M0,-1 v2" />
    <path
       id="gpPt1"
       style="stroke-width:0.222"
       d="M-1,-1 L1,1 M1,-1 L-1,1" />
    <path
       id="gpPt2"
       style="stroke-width:0.222"
       d="M-1,0 L1,0 M0,-1 L0,1 M-1,-1 L1,1 M-1,1 L1,-1" />
    <rect
       id="gpPt3"
       style="stroke-width:0.222"
       x="-1"
       y="-1"
       width="2"
       height="2" />
    <use
       xlink:href="#gpPt3"
       id="gpPt4"
       style="fill:currentColor; stroke:none" />
    <circle
       id="gpPt5"
       style="stroke-width:0.222"
       cx="0"
       cy="0"
       r="1" />
    <use
       xlink:href="#gpPt5"
       id="gpPt6"
       style="fill:currentColor; stroke:none" />
    <path
       id="gpPt7"
       style="stroke-width:0.222"
       d="M0,-1.33 L-1.33,0.67 L1.33,0.67 z" />
    <use
       xlink:href="#gpPt7"
       id="gpPt8"
       style="fill:currentColor; stroke:none" />
    <use
       xlink:href="#gpPt7"
       id="gpPt9"
       transform="rotate(180)" />
    <use
       xlink:href="#gpPt9"
       id="gpPt10"
       style="fill:currentColor; stroke:none" />
    <use
       xlink:href="#gpPt3"
       id="gpPt11"
       transform="rotate(45)" />
    <use
       xlink:href="#gpPt11"
       id="gpPt12"
       style="fill:currentColor; stroke:none" />
  </defs>
  <path
     d="M 40.126402,462.00000 L 31.126402,462.00000 M 40.126402,462.00000 L 49.126402,462.00000"
     id="path620"
     style="color:#000000;fill:none;stroke:currentColor;stroke-width:1.0000000" />
  <g
     transform="translate(27.43840,466.0000)"
     style="font-size:12.000000;color:#000000;fill:#000000;stroke:none;stroke-width:1.0000000;font-family:Arial;text-anchor:end"
     id="g621">
    <text
       id="text622">-2</text>
  </g>
  <path
     d="M 40.126402,394.00000 L 31.126402,394.00000 M 40.126402,394.00000 L 49.126402,394.00000"
     id="path624"
     style="color:#000000;fill:none;stroke:currentColor;stroke-width:1.0000000" />
  <g
     transform="translate(27.43840,398.0000)"
     style="font-size:12.000000;color:#000000;fill:#000000;stroke:none;stroke-width:1.0000000;font-family:Arial;text-anchor:end"
     id="g625">
    <text
       id="text626">-1.5</text>
  </g>
  <path
     d="M 40.126402,326.00000 L 31.126402,326.00000 M 40.126402,326.00000 L 49.126402,326.00000"
     id="path628"
     style="color:#000000;fill:none;stroke:currentColor;stroke-width:1.0000000" />
  <g
     transform="translate(27.43840,330.0000)"
     style="font-size:12.000000;color:#000000;fill:#000000;stroke:none;stroke-width:1.0000000;font-family:Arial;text-anchor:end"
     id="g629">
    <text
       id="text630">-1</text>
  </g>
  <path
     d="M 40.126402,258.00000 L 31.126402,258.00000 M 40.126402,258.00000 L 49.126402,258.00000"
     id="path632"
     style="color:#000000;fill:none;stroke:currentColor;stroke-width:1.0000000" />
  <g
     transform="translate(27.43840,262.0000)"
     style="font-size:12.000000;color:#000000;fill:#000000;stroke:none;stroke-width:1.0000000;font-family:Arial;text-anchor:end"
     id="g633">
    <text
       id="text634">-0.5</text>
  </g>
  <path
     d="M 40.126402,190.00000 L 31.126402,190.00000 M 40.126402,190.00000 L 49.126402,190.00000"
     id="path636"
     style="color:#000000;fill:none;stroke:currentColor;stroke-width:1.0000000" />
  <g
     transform="translate(25.43840,194.0000)"
     style="font-size:12.000000;color:#000000;fill:#000000;stroke:none;stroke-width:1.0000000;font-family:Arial;text-anchor:end"
     id="g637">
    <text
       id="text638">0</text>
  </g>
  <path
     d="M 40.126402,122.00000 L 31.126402,122.00000 M 40.126402,122.00000 L 49.126402,122.00000"
     id="path640"
     style="color:#000000;fill:none;stroke:currentColor;stroke-width:1.0000000" />
  <g
     transform="translate(27.43840,126.0000)"
     style="font-size:12.000000;color:#000000;fill:#000000;stroke:none;stroke-width:1.0000000;font-family:Arial;text-anchor:end"
     id="g641">
    <text
       id="text642">0.5</text>
  </g>
  <path
     d="M 40.126402,54.000000 L 31.126402,54.000000 M 40.126402,54.000000 L 49.126402,54.000000"
     id="path644"
     style="color:#000000;fill:none;stroke:currentColor;stroke-width:1.0000000" />
  <g
     transform="translate(27.43840,58.00000)"
     style="font-size:12.000000;color:#000000;fill:#000000;stroke:none;stroke-width:1.0000000;font-family:Arial;text-anchor:end"
     id="g645">
    <text
       id="text646">1</text>
  </g>
  <path
     d="M 40.126402,190.00000 L 40.126402,199.00000 M 40.126402,190.00000 L 40.126402,181.00000"
     id="path648"
     style="color:#000000;fill:none;stroke:currentColor;stroke-width:1.0000000" />
  <g
     transform="translate(46.12640,210.0000)"
     style="font-size:12.000000;color:#000000;fill:#000000;stroke:none;stroke-width:1.0000000;font-family:Arial;text-anchor:middle"
     id="g649">
    <text
       id="text650">0</text>
  </g>
  <path
     d="M 177.12640,190.00000 L 177.12640,199.00000 M 177.12640,190.00000 L 177.12640,181.00000"
     id="path652"
     style="color:#000000;fill:none;stroke:currentColor;stroke-width:1.0000000" />
  <g
     transform="translate(177.1264,221.0000)"
     style="font-size:12.000000;color:#000000;fill:#000000;stroke:none;stroke-width:1.0000000;font-family:Arial;text-anchor:middle"
     id="g653">
    <text
       id="text654">5</text>
  </g>
  <path
     d="M 314.12640,190.00000 L 314.12640,199.00000 M 314.12640,190.00000 L 314.12640,181.00000"
     id="path656"
     style="color:#000000;fill:none;stroke:currentColor;stroke-width:1.0000000" />
  <g
     transform="translate(314.1264,221.0000)"
     style="font-size:12.000000;color:#000000;fill:#000000;stroke:none;stroke-width:1.0000000;font-family:Arial;text-anchor:middle"
     id="g657">
    <text
       id="text658">10</text>
  </g>
  <path
     d="M 451.12640,190.00000 L 451.12640,199.00000 M 451.12640,190.00000 L 451.12640,181.00000"
     id="path660"
     style="color:#000000;fill:none;stroke:currentColor;stroke-width:1.0000000" />
  <g
     transform="translate(451.1264,211.0000)"
     style="font-size:12.000000;color:#000000;fill:#000000;stroke:none;stroke-width:1.0000000;font-family:Arial;text-anchor:middle"
     id="g661">
    <text
       id="text662">15</text>
  </g>
  <path
     d="M 588.12640,190.00000 L 588.12640,199.00000 M 588.12640,190.00000 L 588.12640,181.00000"
     id="path664"
     style="color:#000000;fill:none;stroke:currentColor;stroke-width:1.0000000" />
  <g
     transform="translate(588.1264,221.0000)"
     style="font-size:12.000000;color:#000000;fill:#000000;stroke:none;stroke-width:1.0000000;font-family:Arial;text-anchor:middle"
     id="g665">
    <text
       id="text666">20</text>
  </g>
  <g
     style="color:#000000;fill:none;stroke:currentColor;stroke-width:0.50000000"
     id="g668"
     transform="translate(13.12640,0.000000)">
    <path
       d="M 27.000000,190.00000 L 575.00000,190.00000"
       id="path669" />
  </g>
  <path
     d="M 27.000000,462.00000 L 575.00000,462.00000 L 575.00000,54.000000 L 27.000000,54.000000 L 27.000000,462.00000"
     id="path671"
     transform="translate(13.12640,0.000000)"
     style="color:#000000;fill:none;stroke:currentColor;stroke-width:1.0000000;" />
  <g
     transform="matrix(0.000000,-1.000000,1.000000,0.000000,22.81280,153.4304)"
     style="font-size:12.000000;color:#000000;fill:#000000;stroke:none;stroke-width:1.0000000;font-family:Arial;text-anchor:middle"
     id="g672">
    <text
       id="text673"><tspan
         style="font-weight:bold"
         id="tspan81">Y</tspan><tspan
         dy="6"
         style="font-weight:bold;font-size:10.000000"
         id="tspan83">n</tspan><tspan
         dy="-6"
         style="font-weight:bold"
         id="tspan85">(x)</tspan></text>
  </g>
  <g
     transform="translate(314.1264,475.0000)"
     style="font-size:12.000000;fill:#000000;stroke:none;font-family:Arial;text-anchor:middle;color:#000000;stroke-width:1.0000000;"
     id="g675">
    <text
       id="text676"><tspan
         style="font-weight:bold"
         id="tspan89">x</tspan></text>
  </g>
  <g
     transform="translate(314.1264,31.00000)"
     style="font-size:12.000000;fill:#000000;stroke:none;font-family:Arial;text-anchor:middle;color:#000000;stroke-width:1.0000000;"
     id="g678">
    <text
       id="text679">Функции Бесселя 2-го рода</text>
  </g>
  <g
     style="color:#000000;fill:none;stroke:currentColor;stroke-width:2.0000000"
     id="g681"
     transform="translate(13.12640,0.000000)" />
  <g
     style="color:#ff0000;fill:none;stroke:currentColor;stroke-width:2.0000000"
     id="g682"
     transform="translate(13.12640,0.000000)" />
  <g
     style="color:#000000;fill:#ff0000;stroke:currentColor;stroke-width:2.0000000;fill-opacity:1.0000000;"
     id="g683"
     transform="translate(13.12640,0.000000)">
    <g
       transform="translate(510.0000,76.00000)"
       style="font-size:12.000000;fill:#ff0000;stroke:none;font-family:Arial;text-anchor:end;fill-opacity:1.0000000;"
       id="g684">
      <text
         id="text685"
         style="fill:#ff0000;fill-opacity:1.0000000;">Y<tspan
   dy="6"
   id="tspan100"
   style="fill:#ff0000;fill-opacity:1.0000000;font-size:10.000000;">0</tspan><tspan
   dy="-6"
   id="tspan102"
   style="fill:#ff0000;fill-opacity:1.0000000;">(x)</tspan></text>
    </g>
  </g>
  <g
     style="color:#ff0000;fill:none;stroke:currentColor;stroke-width:2.0000000"
     id="g687"
     transform="translate(13.12640,0.000000)">
    <path
       d="M 518.00000,72.000000 L 559.00000,72.000000 M 28.000000,462.00000 L 28.000000,459.00000 L 29.000000,443.00000 L 29.000000,430.00000 L 29.000000,418.00000 L 29.000000,408.00000 L 30.000000,399.00000 L 30.000000,390.00000 L 30.000000,383.00000 L 31.000000,376.00000 L 31.000000,369.00000 L 31.000000,363.00000 L 31.000000,357.00000 L 32.000000,352.00000 L 32.000000,347.00000 L 32.000000,342.00000 L 32.000000,337.00000 L 33.000000,333.00000 L 33.000000,328.00000 L 33.000000,324.00000 L 34.000000,320.00000 L 34.000000,317.00000 L 34.000000,313.00000 L 34.000000,310.00000 L 35.000000,306.00000 L 35.000000,303.00000 L 35.000000,300.00000 L 35.000000,297.00000 L 36.000000,294.00000 L 36.000000,291.00000 L 36.000000,288.00000 L 37.000000,285.00000 L 37.000000,283.00000 L 37.000000,280.00000 L 37.000000,277.00000 L 38.000000,275.00000 L 38.000000,272.00000 L 38.000000,270.00000 L 39.000000,268.00000 L 39.000000,265.00000 L 39.000000,263.00000 L 39.000000,261.00000 L 40.000000,259.00000 L 40.000000,257.00000 L 40.000000,255.00000 L 40.000000,252.00000 L 41.000000,250.00000 L 41.000000,248.00000 L 41.000000,247.00000 L 42.000000,245.00000 L 42.000000,243.00000 L 42.000000,241.00000 L 42.000000,239.00000 L 43.000000,237.00000 L 43.000000,235.00000 L 43.000000,234.00000 L 43.000000,232.00000 L 44.000000,230.00000 L 44.000000,229.00000 L 44.000000,227.00000 L 45.000000,225.00000 L 45.000000,224.00000 L 45.000000,222.00000 L 45.000000,221.00000 L 46.000000,219.00000 L 46.000000,217.00000 L 46.000000,216.00000 L 46.000000,214.00000 L 47.000000,213.00000 L 47.000000,212.00000 L 47.000000,210.00000 L 48.000000,209.00000 L 48.000000,207.00000 L 48.000000,206.00000 L 48.000000,204.00000 L 49.000000,203.00000 L 49.000000,202.00000 L 49.000000,200.00000 L 49.000000,199.00000 L 50.000000,198.00000 L 50.000000,197.00000 L 50.000000,195.00000 L 51.000000,194.00000 L 51.000000,193.00000 L 51.000000,192.00000 L 51.000000,190.00000 L 52.000000,189.00000 L 52.000000,188.00000 L 52.000000,187.00000 L 52.000000,186.00000 L 53.000000,185.00000 L 53.000000,183.00000 L 53.000000,182.00000 L 54.000000,181.00000 L 54.000000,180.00000 L 54.000000,179.00000 L 54.000000,178.00000 L 55.000000,177.00000 L 55.000000,176.00000 L 55.000000,175.00000 L 55.000000,174.00000 L 56.000000,173.00000 L 56.000000,172.00000 L 56.000000,171.00000 L 57.000000,170.00000 L 57.000000,169.00000 L 57.000000,168.00000 L 57.000000,167.00000 L 58.000000,166.00000 L 58.000000,165.00000 L 58.000000,164.00000 L 59.000000,163.00000 L 59.000000,162.00000 L 59.000000,161.00000 L 60.000000,160.00000 L 60.000000,159.00000 L 60.000000,158.00000 L 60.000000,157.00000 L 61.000000,156.00000 L 61.000000,155.00000 L 62.000000,154.00000 L 62.000000,153.00000 L 62.000000,152.00000 L 63.000000,151.00000 L 63.000000,150.00000 L 63.000000,149.00000 L 64.000000,148.00000 L 64.000000,147.00000 L 65.000000,146.00000 L 65.000000,145.00000 L 65.000000,144.00000 L 66.000000,143.00000 L 66.000000,142.00000 L 67.000000,141.00000 L 67.000000,140.00000 L 68.000000,139.00000 L 68.000000,138.00000 L 68.000000,137.00000 L 69.000000,137.00000 L 69.000000,136.00000 L 69.000000,135.00000 L 70.000000,135.00000 L 70.000000,134.00000 L 71.000000,133.00000 L 71.000000,132.00000 L 72.000000,131.00000 L 72.000000,130.00000 L 73.000000,130.00000 L 73.000000,129.00000 L 74.000000,129.00000 L 74.000000,128.00000 L 74.000000,127.00000 L 75.000000,127.00000 L 75.000000,126.00000 L 76.000000,126.00000 L 76.000000,125.00000 L 77.000000,125.00000 L 77.000000,124.00000 L 78.000000,124.00000 L 78.000000,123.00000 L 79.000000,123.00000 L 79.000000,122.00000 L 80.000000,122.00000 L 80.000000,121.00000 L 81.000000,121.00000 L 82.000000,121.00000 L 82.000000,120.00000 L 83.000000,120.00000 L 84.000000,120.00000 L 85.000000,120.00000 L 85.000000,119.00000 L 86.000000,119.00000 L 87.000000,119.00000 L 88.000000,119.00000 L 89.000000,119.00000 L 90.000000,119.00000 L 90.000000,120.00000 L 91.000000,120.00000 L 92.000000,120.00000 L 93.000000,121.00000 L 94.000000,121.00000 L 94.000000,122.00000 L 95.000000,122.00000 L 96.000000,122.00000 L 96.000000,123.00000 L 97.000000,123.00000 L 97.000000,124.00000 L 98.000000,124.00000 L 98.000000,125.00000 L 99.000000,125.00000 L 99.000000,126.00000 L 100.00000,126.00000 L 100.00000,127.00000 L 101.00000,127.00000 L 101.00000,128.00000 L 102.00000,128.00000 L 102.00000,129.00000 L 103.00000,129.00000 L 103.00000,130.00000 L 104.00000,131.00000 L 105.00000,132.00000 L 105.00000,133.00000 L 106.00000,133.00000 L 106.00000,134.00000 L 106.00000,135.00000 L 107.00000,135.00000 L 107.00000,136.00000 L 108.00000,136.00000 L 108.00000,137.00000 L 109.00000,138.00000 L 109.00000,139.00000 L 110.00000,140.00000 L 110.00000,141.00000 L 111.00000,141.00000 L 111.00000,142.00000 L 112.00000,143.00000 L 112.00000,144.00000 L 113.00000,145.00000 L 113.00000,146.00000 L 114.00000,146.00000 L 114.00000,147.00000 L 114.00000,148.00000 L 115.00000,148.00000 L 115.00000,149.00000 L 116.00000,150.00000 L 116.00000,151.00000 L 117.00000,152.00000 L 117.00000,153.00000 L 118.00000,154.00000 L 118.00000,155.00000 L 119.00000,156.00000 L 119.00000,157.00000 L 120.00000,158.00000 L 120.00000,159.00000 L 121.00000,160.00000 L 121.00000,161.00000 L 122.00000,162.00000 L 122.00000,163.00000 L 123.00000,164.00000 L 123.00000,165.00000 L 124.00000,166.00000 L 124.00000,167.00000 L 125.00000,168.00000 L 125.00000,169.00000 L 126.00000,170.00000 L 126.00000,171.00000 L 126.00000,172.00000 L 127.00000,172.00000 L 127.00000,173.00000 L 128.00000,174.00000 L 128.00000,175.00000 L 128.00000,176.00000 L 129.00000,176.00000 L 129.00000,177.00000 L 129.00000,178.00000 L 130.00000,178.00000 L 130.00000,179.00000 L 130.00000,180.00000 L 131.00000,180.00000 L 131.00000,181.00000 L 131.00000,182.00000 L 132.00000,182.00000 L 132.00000,183.00000 L 132.00000,184.00000 L 133.00000,185.00000 L 133.00000,186.00000 L 134.00000,186.00000 L 134.00000,187.00000 L 134.00000,188.00000 L 135.00000,188.00000 L 135.00000,189.00000 L 135.00000,190.00000 L 136.00000,190.00000 L 136.00000,191.00000 L 136.00000,192.00000 L 137.00000,192.00000 L 137.00000,193.00000 L 137.00000,194.00000 L 138.00000,194.00000 L 138.00000,195.00000 L 138.00000,196.00000 L 139.00000,196.00000 L 139.00000,197.00000 L 139.00000,198.00000 L 140.00000,198.00000 L 140.00000,199.00000 L 140.00000,200.00000 L 141.00000,200.00000 L 141.00000,201.00000 L 142.00000,202.00000 L 142.00000,203.00000 L 143.00000,204.00000 L 143.00000,205.00000 L 144.00000,206.00000 L 144.00000,207.00000 L 145.00000,207.00000 L 145.00000,208.00000 L 145.00000,209.00000 L 146.00000,209.00000 L 146.00000,210.00000 L 147.00000,211.00000 L 147.00000,212.00000 L 148.00000,212.00000 L 148.00000,213.00000 L 148.00000,214.00000 L 149.00000,214.00000 L 149.00000,215.00000 L 150.00000,216.00000 L 151.00000,217.00000 L 151.00000,218.00000 L 152.00000,218.00000 L 152.00000,219.00000 L 152.00000,220.00000 L 153.00000,220.00000 L 153.00000,221.00000 L 154.00000,221.00000 L 154.00000,222.00000 L 155.00000,223.00000 L 156.00000,224.00000 L 156.00000,225.00000 L 157.00000,225.00000 L 157.00000,226.00000 L 158.00000,226.00000 L 158.00000,227.00000 L 159.00000,227.00000 L 159.00000,228.00000 L 160.00000,228.00000 L 160.00000,229.00000 L 161.00000,229.00000 L 161.00000,230.00000 L 162.00000,230.00000 L 162.00000,231.00000 L 163.00000,231.00000 L 163.00000,232.00000 L 164.00000,232.00000 L 165.00000,232.00000 L 165.00000,233.00000 L 166.00000,233.00000 L 166.00000,234.00000 L 167.00000,234.00000 L 168.00000,234.00000 L 168.00000,235.00000 L 169.00000,235.00000 L 170.00000,235.00000 L 171.00000,235.00000 L 171.00000,236.00000 L 172.00000,236.00000 L 173.00000,236.00000 L 174.00000,236.00000 L 175.00000,236.00000 L 176.00000,236.00000 L 177.00000,236.00000 L 178.00000,236.00000 L 179.00000,236.00000 L 180.00000,236.00000 L 181.00000,236.00000 L 181.00000,235.00000 L 182.00000,235.00000 L 183.00000,235.00000 L 184.00000,234.00000 L 185.00000,234.00000 L 186.00000,233.00000 L 187.00000,233.00000 L 187.00000,232.00000 L 188.00000,232.00000 L 189.00000,231.00000 L 190.00000,231.00000 L 190.00000,230.00000 L 191.00000,230.00000 L 191.00000,229.00000 L 192.00000,229.00000 L 192.00000,228.00000 L 193.00000,228.00000 L 193.00000,227.00000 L 194.00000,227.00000 L 194.00000,226.00000 L 195.00000,226.00000 L 196.00000,225.00000 L 196.00000,224.00000 L 197.00000,224.00000 L 197.00000,223.00000 L 198.00000,223.00000 L 198.00000,222.00000 L 199.00000,222.00000 L 199.00000,221.00000 L 200.00000,221.00000 L 200.00000,220.00000 L 201.00000,219.00000 L 202.00000,218.00000 L 202.00000,217.00000 L 203.00000,217.00000 L 203.00000,216.00000 L 204.00000,215.00000 L 205.00000,214.00000 L 205.00000,213.00000 L 206.00000,213.00000 L 206.00000,212.00000 L 207.00000,211.00000 L 208.00000,210.00000 L 208.00000,209.00000 L 209.00000,209.00000 L 209.00000,208.00000 L 209.00000,207.00000 L 210.00000,207.00000 L 210.00000,206.00000 L 211.00000,206.00000 L 211.00000,205.00000 L 212.00000,204.00000 L 212.00000,203.00000 L 213.00000,203.00000 L 213.00000,202.00000 L 214.00000,201.00000 L 214.00000,200.00000 L 215.00000,200.00000 L 215.00000,199.00000 L 216.00000,198.00000 L 216.00000,197.00000 L 217.00000,197.00000 L 217.00000,196.00000 L 218.00000,195.00000 L 218.00000,194.00000 L 219.00000,194.00000 L 219.00000,193.00000 L 220.00000,192.00000 L 220.00000,191.00000 L 221.00000,191.00000 L 221.00000,190.00000 L 222.00000,189.00000 L 222.00000,188.00000 L 223.00000,188.00000 L 223.00000,187.00000 L 224.00000,186.00000 L 224.00000,185.00000 L 225.00000,185.00000 L 225.00000,184.00000 L 226.00000,183.00000 L 226.00000,182.00000 L 227.00000,182.00000 L 227.00000,181.00000 L 228.00000,181.00000 L 228.00000,180.00000 L 229.00000,179.00000 L 229.00000,178.00000 L 230.00000,178.00000 L 230.00000,177.00000 L 231.00000,177.00000 L 231.00000,176.00000 L 231.00000,175.00000 L 232.00000,175.00000 L 232.00000,174.00000 L 233.00000,174.00000 L 233.00000,173.00000 L 234.00000,173.00000 L 234.00000,172.00000 L 235.00000,171.00000 L 236.00000,170.00000 L 236.00000,169.00000 L 237.00000,169.00000 L 237.00000,168.00000 L 238.00000,168.00000 L 238.00000,167.00000 L 239.00000,167.00000 L 239.00000,166.00000 L 240.00000,166.00000 L 240.00000,165.00000 L 241.00000,165.00000 L 241.00000,164.00000 L 242.00000,164.00000 L 242.00000,163.00000 L 243.00000,163.00000 L 243.00000,162.00000 L 244.00000,162.00000 L 244.00000,161.00000 L 245.00000,161.00000 L 245.00000,160.00000 L 246.00000,160.00000 L 246.00000,159.00000 L 247.00000,159.00000 L 248.00000,159.00000 L 248.00000,158.00000 L 249.00000,158.00000 L 249.00000,157.00000 L 250.00000,157.00000 L 251.00000,157.00000 L 251.00000,156.00000 L 252.00000,156.00000 L 253.00000,156.00000 L 253.00000,155.00000 L 254.00000,155.00000 L 255.00000,155.00000 L 255.00000,154.00000 L 256.00000,154.00000 L 257.00000,154.00000 L 258.00000,154.00000 L 259.00000,153.00000 L 260.00000,153.00000 L 261.00000,153.00000 L 262.00000,153.00000 L 263.00000,153.00000 L 264.00000,153.00000 L 265.00000,153.00000 L 266.00000,153.00000 L 267.00000,154.00000 L 268.00000,154.00000 L 269.00000,154.00000 L 270.00000,154.00000 L 270.00000,155.00000 L 271.00000,155.00000 L 272.00000,155.00000 L 273.00000,155.00000 L 273.00000,156.00000 L 274.00000,156.00000 L 275.00000,157.00000 L 276.00000,157.00000 L 276.00000,158.00000 L 277.00000,158.00000 L 278.00000,158.00000 L 278.00000,159.00000 L 279.00000,159.00000 L 279.00000,160.00000 L 280.00000,160.00000 L 280.00000,161.00000 L 281.00000,161.00000 L 282.00000,161.00000 L 282.00000,162.00000 L 283.00000,162.00000 L 283.00000,163.00000 L 284.00000,163.00000 L 284.00000,164.00000 L 285.00000,164.00000 L 285.00000,165.00000 L 286.00000,165.00000 L 286.00000,166.00000 L 287.00000,166.00000 L 287.00000,167.00000 L 288.00000,167.00000 L 288.00000,168.00000 L 289.00000,168.00000 L 289.00000,169.00000 L 290.00000,169.00000 L 290.00000,170.00000 L 291.00000,170.00000 L 291.00000,171.00000 L 292.00000,171.00000 L 292.00000,172.00000 L 293.00000,172.00000 L 293.00000,173.00000 L 294.00000,174.00000 L 295.00000,175.00000 L 296.00000,176.00000 L 296.00000,177.00000 L 297.00000,177.00000 L 297.00000,178.00000 L 298.00000,178.00000 L 298.00000,179.00000 L 299.00000,179.00000 L 299.00000,180.00000 L 300.00000,181.00000 L 300.00000,182.00000 L 301.00000,182.00000 L 301.00000,183.00000 L 302.00000,183.00000 L 302.00000,184.00000 L 303.00000,184.00000 L 303.00000,185.00000 L 304.00000,186.00000 L 304.00000,187.00000 L 305.00000,187.00000 L 305.00000,188.00000 L 306.00000,188.00000 L 306.00000,189.00000 L 307.00000,190.00000 L 308.00000,191.00000 L 308.00000,192.00000 L 309.00000,192.00000 L 309.00000,193.00000 L 310.00000,193.00000 L 310.00000,194.00000 L 311.00000,194.00000 L 311.00000,195.00000 L 312.00000,196.00000 L 313.00000,197.00000 L 313.00000,198.00000 L 314.00000,198.00000 L 314.00000,199.00000 L 315.00000,199.00000 L 315.00000,200.00000 L 316.00000,200.00000 L 316.00000,201.00000 L 317.00000,201.00000 L 317.00000,202.00000 L 318.00000,203.00000 L 319.00000,204.00000 L 320.00000,205.00000 L 320.00000,206.00000 L 321.00000,206.00000 L 322.00000,207.00000 L 323.00000,208.00000 L 323.00000,209.00000 L 324.00000,209.00000 L 325.00000,210.00000 L 326.00000,211.00000 L 327.00000,212.00000 L 328.00000,212.00000 L 328.00000,213.00000 L 329.00000,213.00000 L 329.00000,214.00000 L 330.00000,214.00000 L 331.00000,215.00000 L 332.00000,215.00000 L 332.00000,216.00000 L 333.00000,216.00000 L 333.00000,217.00000 L 334.00000,217.00000 L 335.00000,217.00000 L 335.00000,218.00000 L 336.00000,218.00000 L 337.00000,218.00000 L 337.00000,219.00000 L 338.00000,219.00000 L 339.00000,219.00000 L 339.00000,220.00000 L 340.00000,220.00000 L 341.00000,220.00000 L 342.00000,220.00000 L 342.00000,221.00000 L 343.00000,221.00000 L 344.00000,221.00000 L 345.00000,221.00000 L 346.00000,221.00000 L 347.00000,222.00000 L 348.00000,222.00000 L 349.00000,222.00000 L 350.00000,222.00000 L 351.00000,222.00000 L 351.00000,221.00000 L 352.00000,221.00000 L 353.00000,221.00000 L 354.00000,221.00000 L 355.00000,221.00000 L 356.00000,221.00000 L 356.00000,220.00000 L 357.00000,220.00000 L 358.00000,220.00000 L 359.00000,220.00000 L 359.00000,219.00000 L 360.00000,219.00000 L 361.00000,219.00000 L 361.00000,218.00000 L 362.00000,218.00000 L 363.00000,218.00000 L 363.00000,217.00000 L 364.00000,217.00000 L 365.00000,217.00000 L 365.00000,216.00000 L 366.00000,216.00000 L 366.00000,215.00000 L 367.00000,215.00000 L 368.00000,215.00000 L 368.00000,214.00000 L 369.00000,214.00000 L 369.00000,213.00000 L 370.00000,213.00000 L 371.00000,212.00000 L 372.00000,212.00000 L 372.00000,211.00000 L 373.00000,211.00000 L 373.00000,210.00000 L 374.00000,210.00000 L 374.00000,209.00000 L 375.00000,209.00000 L 375.00000,208.00000 L 376.00000,208.00000 L 376.00000,207.00000 L 377.00000,207.00000 L 377.00000,206.00000 L 378.00000,206.00000 L 379.00000,205.00000 L 380.00000,204.00000 L 380.00000,203.00000 L 381.00000,203.00000 L 382.00000,202.00000 L 382.00000,201.00000 L 383.00000,201.00000 L 383.00000,200.00000 L 384.00000,200.00000 L 384.00000,199.00000 L 385.00000,199.00000 L 385.00000,198.00000 L 386.00000,198.00000 L 386.00000,197.00000 L 387.00000,197.00000 L 387.00000,196.00000 L 388.00000,196.00000 L 388.00000,195.00000 L 389.00000,195.00000 L 389.00000,194.00000 L 390.00000,194.00000 L 390.00000,193.00000 L 391.00000,193.00000 L 391.00000,192.00000 L 392.00000,192.00000 L 392.00000,191.00000 L 393.00000,191.00000 L 393.00000,190.00000 L 394.00000,189.00000 L 395.00000,188.00000 L 396.00000,187.00000 L 396.00000,186.00000 L 397.00000,186.00000 L 397.00000,185.00000 L 398.00000,185.00000 L 398.00000,184.00000 L 399.00000,184.00000 L 399.00000,183.00000 L 400.00000,183.00000 L 400.00000,182.00000 L 401.00000,182.00000 L 401.00000,181.00000 L 402.00000,181.00000 L 402.00000,180.00000 L 403.00000,180.00000 L 403.00000,179.00000 L 404.00000,179.00000 L 404.00000,178.00000 L 405.00000,178.00000 L 405.00000,177.00000 L 406.00000,177.00000 L 406.00000,176.00000 L 407.00000,176.00000 L 408.00000,175.00000 L 409.00000,174.00000 L 410.00000,174.00000 L 410.00000,173.00000 L 411.00000,173.00000 L 411.00000,172.00000 L 412.00000,172.00000 L 412.00000,171.00000 L 413.00000,171.00000 L 414.00000,170.00000 L 415.00000,170.00000 L 415.00000,169.00000 L 416.00000,169.00000 L 416.00000,168.00000 L 417.00000,168.00000 L 418.00000,168.00000 L 418.00000,167.00000 L 419.00000,167.00000 L 420.00000,166.00000 L 421.00000,166.00000 L 421.00000,165.00000 L 422.00000,165.00000 L 423.00000,165.00000 L 423.00000,164.00000 L 424.00000,164.00000 L 425.00000,164.00000 L 426.00000,164.00000 L 426.00000,163.00000 L 427.00000,163.00000 L 428.00000,163.00000 L 429.00000,163.00000 L 430.00000,163.00000 L 430.00000,162.00000 L 431.00000,162.00000 L 432.00000,162.00000 L 433.00000,162.00000 L 434.00000,162.00000 L 435.00000,162.00000 L 436.00000,162.00000 L 437.00000,162.00000 L 438.00000,162.00000 L 439.00000,162.00000 L 440.00000,162.00000 L 441.00000,162.00000 L 441.00000,163.00000 L 442.00000,163.00000 L 443.00000,163.00000 L 444.00000,163.00000 L 445.00000,164.00000 L 446.00000,164.00000 L 447.00000,164.00000 L 447.00000,165.00000 L 448.00000,165.00000 L 449.00000,165.00000 L 450.00000,166.00000 L 451.00000,166.00000 L 451.00000,167.00000 L 452.00000,167.00000 L 453.00000,167.00000 L 453.00000,168.00000 L 454.00000,168.00000 L 455.00000,169.00000 L 456.00000,169.00000 L 456.00000,170.00000 L 457.00000,170.00000 L 457.00000,171.00000 L 458.00000,171.00000 L 459.00000,171.00000 L 459.00000,172.00000 L 460.00000,172.00000 L 460.00000,173.00000 L 461.00000,173.00000 L 462.00000,174.00000 L 463.00000,175.00000 L 464.00000,176.00000 L 465.00000,176.00000 L 465.00000,177.00000 L 466.00000,177.00000 L 466.00000,178.00000 L 467.00000,178.00000 L 467.00000,179.00000 L 468.00000,179.00000 L 468.00000,180.00000 L 469.00000,180.00000 L 470.00000,181.00000 L 471.00000,182.00000 L 471.00000,183.00000 L 472.00000,183.00000 L 473.00000,184.00000 L 474.00000,185.00000 L 475.00000,186.00000 L 476.00000,186.00000 L 476.00000,187.00000 L 477.00000,188.00000 L 478.00000,189.00000 L 479.00000,189.00000 L 479.00000,190.00000 L 480.00000,191.00000 L 481.00000,192.00000 L 482.00000,192.00000 L 482.00000,193.00000 L 483.00000,193.00000 L 483.00000,194.00000 L 484.00000,194.00000 L 484.00000,195.00000 L 485.00000,195.00000 L 485.00000,196.00000 L 486.00000,196.00000 L 486.00000,197.00000 L 487.00000,197.00000 L 487.00000,198.00000 L 488.00000,198.00000 L 488.00000,199.00000 L 489.00000,199.00000 L 489.00000,200.00000 L 490.00000,200.00000 L 491.00000,201.00000 L 492.00000,202.00000 L 493.00000,202.00000 L 493.00000,203.00000 L 494.00000,203.00000 L 494.00000,204.00000 L 495.00000,204.00000 L 495.00000,205.00000 L 496.00000,205.00000 L 497.00000,206.00000 L 498.00000,206.00000 L 498.00000,207.00000 L 499.00000,207.00000 L 499.00000,208.00000 L 500.00000,208.00000 L 501.00000,209.00000 L 502.00000,209.00000 L 502.00000,210.00000 L 503.00000,210.00000 L 504.00000,210.00000 L 504.00000,211.00000 L 505.00000,211.00000 L 506.00000,211.00000 L 506.00000,212.00000 L 507.00000,212.00000 L 508.00000,212.00000 L 508.00000,213.00000 L 509.00000,213.00000 L 510.00000,213.00000 L 511.00000,214.00000 L 512.00000,214.00000 L 513.00000,214.00000 L 514.00000,215.00000 L 515.00000,215.00000 L 516.00000,215.00000 L 517.00000,215.00000 L 518.00000,215.00000 L 519.00000,215.00000 L 520.00000,215.00000 L 520.00000,216.00000 L 521.00000,216.00000 L 522.00000,216.00000 L 523.00000,216.00000 L 523.00000,215.00000 L 524.00000,215.00000 L 525.00000,215.00000 L 526.00000,215.00000 L 527.00000,215.00000 L 528.00000,215.00000 L 529.00000,215.00000 L 529.00000,214.00000 L 530.00000,214.00000 L 531.00000,214.00000 L 532.00000,214.00000 L 533.00000,213.00000 L 534.00000,213.00000 L 535.00000,213.00000 L 535.00000,212.00000 L 536.00000,212.00000 L 537.00000,212.00000 L 537.00000,211.00000 L 538.00000,211.00000 L 539.00000,211.00000 L 539.00000,210.00000 L 540.00000,210.00000 L 541.00000,209.00000 L 542.00000,209.00000 L 542.00000,208.00000 L 543.00000,208.00000 L 544.00000,208.00000 L 544.00000,207.00000 L 545.00000,207.00000 L 545.00000,206.00000 L 546.00000,206.00000 L 547.00000,206.00000 L 547.00000,205.00000 L 548.00000,205.00000 L 548.00000,204.00000 L 549.00000,204.00000 L 550.00000,203.00000 L 551.00000,203.00000 L 551.00000,202.00000 L 552.00000,202.00000 L 552.00000,201.00000 L 553.00000,201.00000 L 553.00000,200.00000 L 554.00000,200.00000 L 554.00000,199.00000 L 555.00000,199.00000 L 556.00000,199.00000 L 556.00000,198.00000 L 557.00000,198.00000 L 557.00000,197.00000 L 558.00000,197.00000 L 558.00000,196.00000 L 559.00000,196.00000 L 559.00000,195.00000 L 560.00000,195.00000 L 560.00000,194.00000 L 561.00000,194.00000 L 561.00000,193.00000 L 562.00000,193.00000 L 562.00000,192.00000 L 563.00000,192.00000 L 564.00000,191.00000 L 565.00000,191.00000 L 565.00000,190.00000 L 566.00000,190.00000 L 566.00000,189.00000 L 567.00000,189.00000 L 567.00000,188.00000 L 568.00000,188.00000 L 568.00000,187.00000 L 569.00000,187.00000 L 569.00000,186.00000 L 570.00000,186.00000 L 570.00000,185.00000 L 571.00000,185.00000 L 571.00000,184.00000 L 572.00000,184.00000 L 573.00000,184.00000 L 573.00000,183.00000 L 574.00000,183.00000 L 574.00000,182.00000 L 575.00000,182.00000 L 575.00000,181.00000"
       id="path688" />
  </g>
  <g
     style="color:#008000;fill:none;stroke:currentColor;stroke-width:2.0000000"
     id="g689"
     transform="translate(13.12640,0.000000)" />
  <g
     style="color:#000000;fill:#008000;stroke:currentColor;stroke-width:2.0000000;fill-opacity:1.0000000;"
     id="g690"
     transform="translate(13.12640,0.000000)">
    <g
       transform="translate(510.0000,94.00000)"
       style="font-size:12.000000;fill:#008000;stroke:none;font-family:Arial;text-anchor:end;fill-opacity:1.0000000;"
       id="g691">
      <text
         id="text692"
         style="fill:#008000;fill-opacity:1.0000000;"><tspan
           id="tspan110"
           style="fill:#008000;fill-opacity:1.0000000;">Y</tspan><tspan
           dy="6"
           id="tspan112"
           style="fill:#008000;fill-opacity:1.0000000;font-size:10.000000">1</tspan><tspan
           dy="-6"
           id="tspan114"
           style="fill:#008000;fill-opacity:1.0000000;">(x)</tspan></text>
    </g>
  </g>
  <g
     style="color:#008000;fill:none;stroke:currentColor;stroke-width:2.0000000;stroke-dasharray:8.0000000 2.0000000 ;stroke-dashoffset:0.0000000"
     id="g694"
     transform="translate(13.12640,0.000000)">
    <path
       d="M 518.00000,90.000000 L 559.00000,90.000000 M 37.000000,462.00000 L 37.000000,455.00000 L 37.000000,449.00000 L 37.000000,443.00000 L 38.000000,438.00000 L 38.000000,432.00000 L 38.000000,427.00000 L 39.000000,422.00000 L 39.000000,418.00000 L 39.000000,413.00000 L 39.000000,409.00000 L 40.000000,405.00000 L 40.000000,401.00000 L 40.000000,397.00000 L 40.000000,394.00000 L 41.000000,390.00000 L 41.000000,387.00000 L 41.000000,384.00000 L 42.000000,380.00000 L 42.000000,377.00000 L 42.000000,375.00000 L 42.000000,372.00000 L 43.000000,369.00000 L 43.000000,366.00000 L 43.000000,364.00000 L 43.000000,361.00000 L 44.000000,359.00000 L 44.000000,357.00000 L 44.000000,354.00000 L 45.000000,352.00000 L 45.000000,350.00000 L 45.000000,348.00000 L 45.000000,346.00000 L 46.000000,344.00000 L 46.000000,342.00000 L 46.000000,340.00000 L 46.000000,338.00000 L 47.000000,336.00000 L 47.000000,335.00000 L 47.000000,333.00000 L 48.000000,331.00000 L 48.000000,329.00000 L 48.000000,328.00000 L 48.000000,326.00000 L 49.000000,325.00000 L 49.000000,323.00000 L 49.000000,321.00000 L 49.000000,320.00000 L 50.000000,319.00000 L 50.000000,317.00000 L 50.000000,316.00000 L 51.000000,314.00000 L 51.000000,313.00000 L 51.000000,311.00000 L 51.000000,310.00000 L 52.000000,309.00000 L 52.000000,307.00000 L 52.000000,306.00000 L 52.000000,305.00000 L 53.000000,304.00000 L 53.000000,302.00000 L 53.000000,301.00000 L 54.000000,300.00000 L 54.000000,299.00000 L 54.000000,297.00000 L 54.000000,296.00000 L 55.000000,295.00000 L 55.000000,294.00000 L 55.000000,293.00000 L 55.000000,292.00000 L 56.000000,290.00000 L 56.000000,289.00000 L 56.000000,288.00000 L 57.000000,287.00000 L 57.000000,286.00000 L 57.000000,285.00000 L 57.000000,284.00000 L 58.000000,283.00000 L 58.000000,282.00000 L 58.000000,281.00000 L 59.000000,280.00000 L 59.000000,279.00000 L 59.000000,278.00000 L 59.000000,277.00000 L 60.000000,275.00000 L 60.000000,274.00000 L 60.000000,273.00000 L 60.000000,272.00000 L 61.000000,271.00000 L 61.000000,270.00000 L 61.000000,269.00000 L 62.000000,268.00000 L 62.000000,267.00000 L 62.000000,266.00000 L 63.000000,265.00000 L 63.000000,264.00000 L 63.000000,263.00000 L 63.000000,262.00000 L 64.000000,261.00000 L 64.000000,260.00000 L 64.000000,259.00000 L 65.000000,258.00000 L 65.000000,257.00000 L 65.000000,256.00000 L 65.000000,255.00000 L 66.000000,254.00000 L 66.000000,253.00000 L 66.000000,252.00000 L 66.000000,251.00000 L 67.000000,251.00000 L 67.000000,250.00000 L 67.000000,249.00000 L 68.000000,248.00000 L 68.000000,247.00000 L 68.000000,246.00000 L 68.000000,245.00000 L 69.000000,244.00000 L 69.000000,243.00000 L 69.000000,242.00000 L 70.000000,241.00000 L 70.000000,240.00000 L 70.000000,239.00000 L 71.000000,238.00000 L 71.000000,237.00000 L 71.000000,236.00000 L 72.000000,235.00000 L 72.000000,234.00000 L 72.000000,233.00000 L 72.000000,232.00000 L 73.000000,231.00000 L 73.000000,230.00000 L 74.000000,229.00000 L 74.000000,228.00000 L 74.000000,227.00000 L 74.000000,226.00000 L 75.000000,225.00000 L 75.000000,224.00000 L 75.000000,223.00000 L 76.000000,222.00000 L 76.000000,221.00000 L 76.000000,220.00000 L 77.000000,220.00000 L 77.000000,219.00000 L 77.000000,218.00000 L 77.000000,217.00000 L 78.000000,216.00000 L 78.000000,215.00000 L 79.000000,214.00000 L 79.000000,213.00000 L 79.000000,212.00000 L 80.000000,211.00000 L 80.000000,210.00000 L 80.000000,209.00000 L 80.000000,208.00000 L 81.000000,208.00000 L 81.000000,207.00000 L 81.000000,206.00000 L 82.000000,205.00000 L 82.000000,204.00000 L 82.000000,203.00000 L 83.000000,202.00000 L 83.000000,201.00000 L 83.000000,200.00000 L 84.000000,199.00000 L 84.000000,198.00000 L 85.000000,197.00000 L 85.000000,196.00000 L 85.000000,195.00000 L 86.000000,194.00000 L 86.000000,193.00000 L 86.000000,192.00000 L 87.000000,191.00000 L 87.000000,190.00000 L 88.000000,189.00000 L 88.000000,188.00000 L 88.000000,187.00000 L 89.000000,186.00000 L 89.000000,185.00000 L 89.000000,184.00000 L 90.000000,184.00000 L 90.000000,183.00000 L 90.000000,182.00000 L 91.000000,182.00000 L 91.000000,181.00000 L 91.000000,180.00000 L 92.000000,179.00000 L 92.000000,178.00000 L 92.000000,177.00000 L 93.000000,176.00000 L 93.000000,175.00000 L 94.000000,174.00000 L 94.000000,173.00000 L 95.000000,172.00000 L 95.000000,171.00000 L 95.000000,170.00000 L 96.000000,170.00000 L 96.000000,169.00000 L 96.000000,168.00000 L 97.000000,168.00000 L 97.000000,167.00000 L 97.000000,166.00000 L 98.000000,166.00000 L 98.000000,165.00000 L 98.000000,164.00000 L 99.000000,164.00000 L 99.000000,163.00000 L 99.000000,162.00000 L 100.00000,162.00000 L 100.00000,161.00000 L 100.00000,160.00000 L 101.00000,160.00000 L 101.00000,159.00000 L 102.00000,158.00000 L 102.00000,157.00000 L 103.00000,156.00000 L 103.00000,155.00000 L 104.00000,154.00000 L 104.00000,153.00000 L 105.00000,153.00000 L 105.00000,152.00000 L 105.00000,151.00000 L 106.00000,151.00000 L 106.00000,150.00000 L 107.00000,149.00000 L 108.00000,148.00000 L 108.00000,147.00000 L 109.00000,147.00000 L 109.00000,146.00000 L 109.00000,145.00000 L 110.00000,145.00000 L 110.00000,144.00000 L 111.00000,144.00000 L 111.00000,143.00000 L 112.00000,143.00000 L 112.00000,142.00000 L 113.00000,142.00000 L 113.00000,141.00000 L 114.00000,141.00000 L 114.00000,140.00000 L 115.00000,140.00000 L 115.00000,139.00000 L 116.00000,139.00000 L 116.00000,138.00000 L 117.00000,138.00000 L 117.00000,137.00000 L 118.00000,137.00000 L 119.00000,136.00000 L 120.00000,136.00000 L 120.00000,135.00000 L 121.00000,135.00000 L 122.00000,135.00000 L 122.00000,134.00000 L 123.00000,134.00000 L 124.00000,134.00000 L 125.00000,134.00000 L 126.00000,134.00000 L 126.00000,133.00000 L 127.00000,133.00000 L 128.00000,133.00000 L 129.00000,133.00000 L 130.00000,133.00000 L 130.00000,134.00000 L 131.00000,134.00000 L 132.00000,134.00000 L 133.00000,134.00000 L 134.00000,134.00000 L 134.00000,135.00000 L 135.00000,135.00000 L 136.00000,135.00000 L 136.00000,136.00000 L 137.00000,136.00000 L 138.00000,137.00000 L 139.00000,137.00000 L 139.00000,138.00000 L 140.00000,138.00000 L 140.00000,139.00000 L 141.00000,139.00000 L 142.00000,139.00000 L 142.00000,140.00000 L 143.00000,140.00000 L 143.00000,141.00000 L 144.00000,142.00000 L 145.00000,142.00000 L 145.00000,143.00000 L 146.00000,143.00000 L 146.00000,144.00000 L 147.00000,145.00000 L 148.00000,146.00000 L 148.00000,147.00000 L 149.00000,147.00000 L 149.00000,148.00000 L 150.00000,148.00000 L 150.00000,149.00000 L 151.00000,149.00000 L 151.00000,150.00000 L 151.00000,151.00000 L 152.00000,151.00000 L 152.00000,152.00000 L 153.00000,152.00000 L 153.00000,153.00000 L 154.00000,154.00000 L 154.00000,155.00000 L 155.00000,155.00000 L 155.00000,156.00000 L 156.00000,156.00000 L 156.00000,157.00000 L 156.00000,158.00000 L 157.00000,158.00000 L 157.00000,159.00000 L 158.00000,160.00000 L 158.00000,161.00000 L 159.00000,161.00000 L 159.00000,162.00000 L 160.00000,163.00000 L 160.00000,164.00000 L 161.00000,164.00000 L 161.00000,165.00000 L 162.00000,166.00000 L 162.00000,167.00000 L 163.00000,168.00000 L 163.00000,169.00000 L 164.00000,169.00000 L 164.00000,170.00000 L 165.00000,171.00000 L 165.00000,172.00000 L 166.00000,173.00000 L 166.00000,174.00000 L 167.00000,175.00000 L 168.00000,176.00000 L 168.00000,177.00000 L 169.00000,178.00000 L 169.00000,179.00000 L 170.00000,180.00000 L 170.00000,181.00000 L 171.00000,181.00000 L 171.00000,182.00000 L 171.00000,183.00000 L 172.00000,183.00000 L 172.00000,184.00000 L 173.00000,185.00000 L 173.00000,186.00000 L 174.00000,186.00000 L 174.00000,187.00000 L 174.00000,188.00000 L 175.00000,188.00000 L 175.00000,189.00000 L 176.00000,190.00000 L 176.00000,191.00000 L 177.00000,191.00000 L 177.00000,192.00000 L 177.00000,193.00000 L 178.00000,193.00000 L 178.00000,194.00000 L 179.00000,195.00000 L 179.00000,196.00000 L 180.00000,196.00000 L 180.00000,197.00000 L 180.00000,198.00000 L 181.00000,198.00000 L 181.00000,199.00000 L 182.00000,199.00000 L 182.00000,200.00000 L 182.00000,201.00000 L 183.00000,201.00000 L 183.00000,202.00000 L 184.00000,203.00000 L 184.00000,204.00000 L 185.00000,204.00000 L 185.00000,205.00000 L 186.00000,206.00000 L 186.00000,207.00000 L 187.00000,207.00000 L 187.00000,208.00000 L 188.00000,209.00000 L 188.00000,210.00000 L 189.00000,210.00000 L 189.00000,211.00000 L 190.00000,212.00000 L 191.00000,213.00000 L 191.00000,214.00000 L 192.00000,214.00000 L 192.00000,215.00000 L 193.00000,216.00000 L 194.00000,217.00000 L 195.00000,218.00000 L 196.00000,219.00000 L 196.00000,220.00000 L 197.00000,220.00000 L 197.00000,221.00000 L 198.00000,221.00000 L 198.00000,222.00000 L 199.00000,222.00000 L 199.00000,223.00000 L 200.00000,223.00000 L 200.00000,224.00000 L 201.00000,224.00000 L 202.00000,225.00000 L 203.00000,226.00000 L 204.00000,226.00000 L 204.00000,227.00000 L 205.00000,227.00000 L 206.00000,228.00000 L 207.00000,228.00000 L 207.00000,229.00000 L 208.00000,229.00000 L 209.00000,229.00000 L 209.00000,230.00000 L 210.00000,230.00000 L 211.00000,230.00000 L 212.00000,230.00000 L 212.00000,231.00000 L 213.00000,231.00000 L 214.00000,231.00000 L 215.00000,231.00000 L 216.00000,231.00000 L 217.00000,231.00000 L 218.00000,231.00000 L 219.00000,231.00000 L 220.00000,231.00000 L 221.00000,231.00000 L 222.00000,231.00000 L 223.00000,230.00000 L 224.00000,230.00000 L 225.00000,230.00000 L 225.00000,229.00000 L 226.00000,229.00000 L 227.00000,229.00000 L 228.00000,228.00000 L 229.00000,228.00000 L 229.00000,227.00000 L 230.00000,227.00000 L 231.00000,227.00000 L 231.00000,226.00000 L 232.00000,226.00000 L 232.00000,225.00000 L 233.00000,225.00000 L 234.00000,224.00000 L 235.00000,223.00000 L 236.00000,223.00000 L 236.00000,222.00000 L 237.00000,222.00000 L 237.00000,221.00000 L 238.00000,221.00000 L 238.00000,220.00000 L 239.00000,220.00000 L 239.00000,219.00000 L 240.00000,219.00000 L 240.00000,218.00000 L 241.00000,218.00000 L 241.00000,217.00000 L 242.00000,217.00000 L 242.00000,216.00000 L 243.00000,216.00000 L 243.00000,215.00000 L 244.00000,214.00000 L 245.00000,213.00000 L 245.00000,212.00000 L 246.00000,212.00000 L 246.00000,211.00000 L 247.00000,211.00000 L 247.00000,210.00000 L 248.00000,210.00000 L 248.00000,209.00000 L 249.00000,208.00000 L 249.00000,207.00000 L 250.00000,207.00000 L 250.00000,206.00000 L 251.00000,206.00000 L 251.00000,205.00000 L 252.00000,205.00000 L 252.00000,204.00000 L 253.00000,204.00000 L 253.00000,203.00000 L 253.00000,202.00000 L 254.00000,202.00000 L 254.00000,201.00000 L 255.00000,201.00000 L 255.00000,200.00000 L 256.00000,199.00000 L 256.00000,198.00000 L 257.00000,198.00000 L 257.00000,197.00000 L 258.00000,197.00000 L 258.00000,196.00000 L 259.00000,195.00000 L 259.00000,194.00000 L 260.00000,194.00000 L 260.00000,193.00000 L 261.00000,192.00000 L 262.00000,191.00000 L 262.00000,190.00000 L 263.00000,190.00000 L 263.00000,189.00000 L 264.00000,188.00000 L 265.00000,187.00000 L 265.00000,186.00000 L 266.00000,186.00000 L 266.00000,185.00000 L 267.00000,184.00000 L 268.00000,183.00000 L 268.00000,182.00000 L 269.00000,182.00000 L 269.00000,181.00000 L 270.00000,181.00000 L 270.00000,180.00000 L 271.00000,179.00000 L 271.00000,178.00000 L 272.00000,178.00000 L 272.00000,177.00000 L 273.00000,177.00000 L 273.00000,176.00000 L 274.00000,176.00000 L 274.00000,175.00000 L 275.00000,175.00000 L 275.00000,174.00000 L 276.00000,174.00000 L 276.00000,173.00000 L 277.00000,172.00000 L 277.00000,171.00000 L 278.00000,171.00000 L 279.00000,170.00000 L 279.00000,169.00000 L 280.00000,169.00000 L 280.00000,168.00000 L 281.00000,168.00000 L 282.00000,167.00000 L 282.00000,166.00000 L 283.00000,166.00000 L 284.00000,165.00000 L 285.00000,165.00000 L 285.00000,164.00000 L 286.00000,164.00000 L 286.00000,163.00000 L 287.00000,163.00000 L 287.00000,162.00000 L 288.00000,162.00000 L 289.00000,161.00000 L 290.00000,161.00000 L 290.00000,160.00000 L 291.00000,160.00000 L 292.00000,159.00000 L 293.00000,159.00000 L 294.00000,158.00000 L 295.00000,158.00000 L 296.00000,158.00000 L 296.00000,157.00000 L 297.00000,157.00000 L 298.00000,157.00000 L 299.00000,157.00000 L 299.00000,156.00000 L 300.00000,156.00000 L 301.00000,156.00000 L 302.00000,156.00000 L 303.00000,156.00000 L 304.00000,156.00000 L 305.00000,156.00000 L 306.00000,156.00000 L 307.00000,156.00000 L 308.00000,156.00000 L 309.00000,156.00000 L 310.00000,157.00000 L 311.00000,157.00000 L 312.00000,157.00000 L 313.00000,157.00000 L 313.00000,158.00000 L 314.00000,158.00000 L 315.00000,158.00000 L 316.00000,159.00000 L 317.00000,159.00000 L 317.00000,160.00000 L 318.00000,160.00000 L 319.00000,160.00000 L 319.00000,161.00000 L 320.00000,161.00000 L 321.00000,162.00000 L 322.00000,162.00000 L 322.00000,163.00000 L 323.00000,163.00000 L 323.00000,164.00000 L 324.00000,164.00000 L 325.00000,164.00000 L 325.00000,165.00000 L 326.00000,165.00000 L 326.00000,166.00000 L 327.00000,166.00000 L 327.00000,167.00000 L 328.00000,167.00000 L 328.00000,168.00000 L 329.00000,168.00000 L 329.00000,169.00000 L 330.00000,169.00000 L 330.00000,170.00000 L 331.00000,170.00000 L 331.00000,171.00000 L 332.00000,171.00000 L 333.00000,172.00000 L 333.00000,173.00000 L 334.00000,173.00000 L 334.00000,174.00000 L 335.00000,174.00000 L 335.00000,175.00000 L 336.00000,175.00000 L 336.00000,176.00000 L 337.00000,176.00000 L 337.00000,177.00000 L 338.00000,177.00000 L 338.00000,178.00000 L 339.00000,178.00000 L 339.00000,179.00000 L 340.00000,179.00000 L 340.00000,180.00000 L 341.00000,181.00000 L 342.00000,181.00000 L 342.00000,182.00000 L 343.00000,183.00000 L 343.00000,184.00000 L 344.00000,184.00000 L 344.00000,185.00000 L 345.00000,185.00000 L 345.00000,186.00000 L 346.00000,186.00000 L 346.00000,187.00000 L 347.00000,187.00000 L 347.00000,188.00000 L 348.00000,188.00000 L 348.00000,189.00000 L 349.00000,190.00000 L 349.00000,191.00000 L 350.00000,191.00000 L 350.00000,192.00000 L 351.00000,192.00000 L 351.00000,193.00000 L 352.00000,193.00000 L 352.00000,194.00000 L 353.00000,194.00000 L 353.00000,195.00000 L 354.00000,195.00000 L 354.00000,196.00000 L 355.00000,197.00000 L 356.00000,197.00000 L 356.00000,198.00000 L 357.00000,199.00000 L 357.00000,200.00000 L 358.00000,200.00000 L 359.00000,201.00000 L 359.00000,202.00000 L 360.00000,202.00000 L 360.00000,203.00000 L 361.00000,203.00000 L 361.00000,204.00000 L 362.00000,204.00000 L 362.00000,205.00000 L 363.00000,205.00000 L 363.00000,206.00000 L 364.00000,206.00000 L 365.00000,207.00000 L 366.00000,208.00000 L 367.00000,209.00000 L 368.00000,209.00000 L 368.00000,210.00000 L 369.00000,210.00000 L 369.00000,211.00000 L 370.00000,211.00000 L 370.00000,212.00000 L 371.00000,212.00000 L 372.00000,213.00000 L 373.00000,213.00000 L 373.00000,214.00000 L 374.00000,214.00000 L 375.00000,215.00000 L 376.00000,215.00000 L 376.00000,216.00000 L 377.00000,216.00000 L 378.00000,216.00000 L 378.00000,217.00000 L 379.00000,217.00000 L 380.00000,217.00000 L 380.00000,218.00000 L 381.00000,218.00000 L 382.00000,218.00000 L 383.00000,218.00000 L 383.00000,219.00000 L 384.00000,219.00000 L 385.00000,219.00000 L 386.00000,219.00000 L 387.00000,219.00000 L 387.00000,220.00000 L 388.00000,220.00000 L 389.00000,220.00000 L 390.00000,220.00000 L 391.00000,220.00000 L 392.00000,220.00000 L 393.00000,220.00000 L 394.00000,220.00000 L 395.00000,220.00000 L 395.00000,219.00000 L 396.00000,219.00000 L 397.00000,219.00000 L 398.00000,219.00000 L 399.00000,219.00000 L 399.00000,218.00000 L 400.00000,218.00000 L 401.00000,218.00000 L 402.00000,218.00000 L 402.00000,217.00000 L 403.00000,217.00000 L 404.00000,217.00000 L 404.00000,216.00000 L 405.00000,216.00000 L 406.00000,216.00000 L 406.00000,215.00000 L 407.00000,215.00000 L 408.00000,215.00000 L 408.00000,214.00000 L 409.00000,214.00000 L 410.00000,213.00000 L 411.00000,213.00000 L 411.00000,212.00000 L 412.00000,212.00000 L 412.00000,211.00000 L 413.00000,211.00000 L 414.00000,210.00000 L 415.00000,210.00000 L 415.00000,209.00000 L 416.00000,209.00000 L 416.00000,208.00000 L 417.00000,208.00000 L 417.00000,207.00000 L 418.00000,207.00000 L 419.00000,206.00000 L 420.00000,205.00000 L 421.00000,204.00000 L 422.00000,204.00000 L 422.00000,203.00000 L 423.00000,203.00000 L 423.00000,202.00000 L 424.00000,202.00000 L 424.00000,201.00000 L 425.00000,201.00000 L 425.00000,200.00000 L 426.00000,200.00000 L 426.00000,199.00000 L 427.00000,199.00000 L 427.00000,198.00000 L 428.00000,198.00000 L 428.00000,197.00000 L 429.00000,197.00000 L 429.00000,196.00000 L 430.00000,196.00000 L 430.00000,195.00000 L 431.00000,195.00000 L 431.00000,194.00000 L 432.00000,194.00000 L 432.00000,193.00000 L 433.00000,193.00000 L 433.00000,192.00000 L 434.00000,192.00000 L 434.00000,191.00000 L 435.00000,190.00000 L 436.00000,190.00000 L 436.00000,189.00000 L 437.00000,189.00000 L 437.00000,188.00000 L 438.00000,187.00000 L 439.00000,187.00000 L 439.00000,186.00000 L 440.00000,185.00000 L 441.00000,184.00000 L 442.00000,184.00000 L 442.00000,183.00000 L 443.00000,183.00000 L 443.00000,182.00000 L 444.00000,181.00000 L 445.00000,181.00000 L 445.00000,180.00000 L 446.00000,180.00000 L 446.00000,179.00000 L 447.00000,179.00000 L 447.00000,178.00000 L 448.00000,178.00000 L 448.00000,177.00000 L 449.00000,177.00000 L 449.00000,176.00000 L 450.00000,176.00000 L 451.00000,175.00000 L 452.00000,174.00000 L 453.00000,174.00000 L 453.00000,173.00000 L 454.00000,173.00000 L 454.00000,172.00000 L 455.00000,172.00000 L 456.00000,171.00000 L 457.00000,171.00000 L 457.00000,170.00000 L 458.00000,170.00000 L 459.00000,169.00000 L 460.00000,169.00000 L 460.00000,168.00000 L 461.00000,168.00000 L 462.00000,168.00000 L 462.00000,167.00000 L 463.00000,167.00000 L 464.00000,167.00000 L 464.00000,166.00000 L 465.00000,166.00000 L 466.00000,166.00000 L 466.00000,165.00000 L 467.00000,165.00000 L 468.00000,165.00000 L 469.00000,165.00000 L 469.00000,164.00000 L 470.00000,164.00000 L 471.00000,164.00000 L 472.00000,164.00000 L 473.00000,164.00000 L 474.00000,163.00000 L 475.00000,163.00000 L 476.00000,163.00000 L 477.00000,163.00000 L 478.00000,163.00000 L 479.00000,163.00000 L 480.00000,163.00000 L 481.00000,163.00000 L 482.00000,164.00000 L 483.00000,164.00000 L 484.00000,164.00000 L 485.00000,164.00000 L 486.00000,164.00000 L 486.00000,165.00000 L 487.00000,165.00000 L 488.00000,165.00000 L 489.00000,165.00000 L 489.00000,166.00000 L 490.00000,166.00000 L 491.00000,166.00000 L 491.00000,167.00000 L 492.00000,167.00000 L 493.00000,167.00000 L 493.00000,168.00000 L 494.00000,168.00000 L 495.00000,168.00000 L 495.00000,169.00000 L 496.00000,169.00000 L 497.00000,169.00000 L 497.00000,170.00000 L 498.00000,170.00000 L 499.00000,171.00000 L 500.00000,171.00000 L 500.00000,172.00000 L 501.00000,172.00000 L 501.00000,173.00000 L 502.00000,173.00000 L 503.00000,174.00000 L 504.00000,174.00000 L 504.00000,175.00000 L 505.00000,175.00000 L 505.00000,176.00000 L 506.00000,176.00000 L 506.00000,177.00000 L 507.00000,177.00000 L 508.00000,178.00000 L 509.00000,178.00000 L 509.00000,179.00000 L 510.00000,179.00000 L 510.00000,180.00000 L 511.00000,180.00000 L 511.00000,181.00000 L 512.00000,181.00000 L 512.00000,182.00000 L 513.00000,182.00000 L 513.00000,183.00000 L 514.00000,183.00000 L 514.00000,184.00000 L 515.00000,184.00000 L 516.00000,185.00000 L 517.00000,186.00000 L 518.00000,187.00000 L 519.00000,187.00000 L 519.00000,188.00000 L 520.00000,188.00000 L 520.00000,189.00000 L 521.00000,189.00000 L 521.00000,190.00000 L 522.00000,190.00000 L 522.00000,191.00000 L 523.00000,191.00000 L 523.00000,192.00000 L 524.00000,192.00000 L 524.00000,193.00000 L 525.00000,193.00000 L 525.00000,194.00000 L 526.00000,194.00000 L 527.00000,195.00000 L 528.00000,196.00000 L 529.00000,197.00000 L 530.00000,197.00000 L 530.00000,198.00000 L 531.00000,198.00000 L 531.00000,199.00000 L 532.00000,199.00000 L 532.00000,200.00000 L 533.00000,200.00000 L 533.00000,201.00000 L 534.00000,201.00000 L 534.00000,202.00000 L 535.00000,202.00000 L 536.00000,202.00000 L 536.00000,203.00000 L 537.00000,203.00000 L 537.00000,204.00000 L 538.00000,204.00000 L 538.00000,205.00000 L 539.00000,205.00000 L 540.00000,206.00000 L 541.00000,206.00000 L 541.00000,207.00000 L 542.00000,207.00000 L 543.00000,208.00000 L 544.00000,208.00000 L 544.00000,209.00000 L 545.00000,209.00000 L 546.00000,209.00000 L 546.00000,210.00000 L 547.00000,210.00000 L 548.00000,210.00000 L 548.00000,211.00000 L 549.00000,211.00000 L 550.00000,211.00000 L 550.00000,212.00000 L 551.00000,212.00000 L 552.00000,212.00000 L 553.00000,212.00000 L 553.00000,213.00000 L 554.00000,213.00000 L 555.00000,213.00000 L 556.00000,213.00000 L 556.00000,214.00000 L 557.00000,214.00000 L 558.00000,214.00000 L 559.00000,214.00000 L 560.00000,214.00000 L 561.00000,214.00000 L 562.00000,214.00000 L 563.00000,215.00000 L 564.00000,215.00000 L 565.00000,215.00000 L 565.00000,214.00000 L 566.00000,214.00000 L 567.00000,214.00000 L 568.00000,214.00000 L 569.00000,214.00000 L 570.00000,214.00000 L 571.00000,214.00000 L 572.00000,214.00000 L 572.00000,213.00000 L 573.00000,213.00000 L 574.00000,213.00000 L 575.00000,213.00000"
       id="path695"
       style="stroke-dasharray:8.0000000 2.0000000 ;stroke-dashoffset:0.0000000" />
  </g>
  <g
     style="color:#0000ff;fill:none;stroke:currentColor;stroke-width:2.0000000"
     id="g696"
     transform="translate(13.12640,0.000000)" />
  <g
     style="color:#000000;fill:#0000ff;stroke:currentColor;stroke-width:2.0000000;fill-opacity:1.0000000;"
     id="g697"
     transform="translate(13.12640,0.000000)">
    <g
       transform="translate(510.0000,112.0000)"
       style="font-size:12.000000;fill:#0000ff;stroke:none;font-family:Arial;text-anchor:end;fill-opacity:1.0000000;"
       id="g698">
      <text
         id="text699"
         style="fill:#0000ff;fill-opacity:1.0000000;">Y<tspan
   dy="6"
   id="tspan123"
   style="fill:#0000ff;fill-opacity:1.0000000;font-size:10.000000;">2</tspan><tspan
   dy="-6"
   id="tspan125"
   style="fill:#0000ff;fill-opacity:1.0000000;">(x)</tspan></text>
    </g>
  </g>
  <g
     style="color:#0000ff;fill:none;stroke:currentColor;stroke-width:2.0000000;stroke-dasharray:2.0000000,2.0000000;stroke-dashoffset:0.0000000;stroke-miterlimit:4.0000000;"
     id="g701"
     transform="translate(13.12640,0.000000)">
    <path
       d="M 518.00000,108.00000 L 559.00000,108.00000 M 51.000000,462.00000 L 51.000000,459.00000 L 52.000000,455.00000 L 52.000000,450.00000 L 52.000000,446.00000 L 52.000000,441.00000 L 53.000000,437.00000 L 53.000000,433.00000 L 53.000000,429.00000 L 54.000000,425.00000 L 54.000000,422.00000 L 54.000000,418.00000 L 54.000000,414.00000 L 55.000000,411.00000 L 55.000000,408.00000 L 55.000000,405.00000 L 55.000000,402.00000 L 56.000000,399.00000 L 56.000000,396.00000 L 56.000000,393.00000 L 57.000000,390.00000 L 57.000000,387.00000 L 57.000000,385.00000 L 57.000000,382.00000 L 58.000000,380.00000 L 58.000000,377.00000 L 58.000000,375.00000 L 59.000000,373.00000 L 59.000000,370.00000 L 59.000000,368.00000 L 59.000000,366.00000 L 60.000000,364.00000 L 60.000000,362.00000 L 60.000000,360.00000 L 60.000000,358.00000 L 61.000000,356.00000 L 61.000000,354.00000 L 61.000000,352.00000 L 62.000000,350.00000 L 62.000000,349.00000 L 62.000000,347.00000 L 62.000000,345.00000 L 63.000000,344.00000 L 63.000000,342.00000 L 63.000000,341.00000 L 63.000000,339.00000 L 64.000000,338.00000 L 64.000000,336.00000 L 64.000000,335.00000 L 65.000000,333.00000 L 65.000000,332.00000 L 65.000000,330.00000 L 65.000000,329.00000 L 66.000000,328.00000 L 66.000000,326.00000 L 66.000000,325.00000 L 66.000000,324.00000 L 67.000000,323.00000 L 67.000000,321.00000 L 67.000000,320.00000 L 68.000000,319.00000 L 68.000000,318.00000 L 68.000000,317.00000 L 68.000000,316.00000 L 69.000000,315.00000 L 69.000000,313.00000 L 69.000000,312.00000 L 69.000000,311.00000 L 70.000000,310.00000 L 70.000000,309.00000 L 70.000000,308.00000 L 71.000000,307.00000 L 71.000000,306.00000 L 71.000000,305.00000 L 71.000000,304.00000 L 72.000000,303.00000 L 72.000000,302.00000 L 72.000000,301.00000 L 73.000000,300.00000 L 73.000000,299.00000 L 73.000000,298.00000 L 74.000000,297.00000 L 74.000000,296.00000 L 74.000000,295.00000 L 74.000000,294.00000 L 75.000000,294.00000 L 75.000000,293.00000 L 75.000000,292.00000 L 75.000000,291.00000 L 76.000000,290.00000 L 76.000000,289.00000 L 77.000000,288.00000 L 77.000000,287.00000 L 77.000000,286.00000 L 78.000000,285.00000 L 78.000000,284.00000 L 78.000000,283.00000 L 79.000000,283.00000 L 79.000000,282.00000 L 79.000000,281.00000 L 79.000000,280.00000 L 80.000000,280.00000 L 80.000000,279.00000 L 80.000000,278.00000 L 80.000000,277.00000 L 81.000000,277.00000 L 81.000000,276.00000 L 81.000000,275.00000 L 82.000000,275.00000 L 82.000000,274.00000 L 82.000000,273.00000 L 83.000000,272.00000 L 83.000000,271.00000 L 83.000000,270.00000 L 84.000000,269.00000 L 84.000000,268.00000 L 85.000000,267.00000 L 85.000000,266.00000 L 85.000000,265.00000 L 86.000000,265.00000 L 86.000000,264.00000 L 86.000000,263.00000 L 87.000000,262.00000 L 87.000000,261.00000 L 88.000000,260.00000 L 88.000000,259.00000 L 88.000000,258.00000 L 89.000000,257.00000 L 89.000000,256.00000 L 90.000000,255.00000 L 90.000000,254.00000 L 91.000000,253.00000 L 91.000000,252.00000 L 91.000000,251.00000 L 92.000000,251.00000 L 92.000000,250.00000 L 92.000000,249.00000 L 93.000000,248.00000 L 93.000000,247.00000 L 94.000000,246.00000 L 94.000000,245.00000 L 94.000000,244.00000 L 95.000000,244.00000 L 95.000000,243.00000 L 95.000000,242.00000 L 96.000000,241.00000 L 96.000000,240.00000 L 97.000000,239.00000 L 97.000000,238.00000 L 98.000000,237.00000 L 98.000000,236.00000 L 99.000000,235.00000 L 99.000000,234.00000 L 99.000000,233.00000 L 100.00000,233.00000 L 100.00000,232.00000 L 100.00000,231.00000 L 101.00000,230.00000 L 101.00000,229.00000 L 102.00000,228.00000 L 102.00000,227.00000 L 103.00000,226.00000 L 103.00000,225.00000 L 103.00000,224.00000 L 104.00000,224.00000 L 104.00000,223.00000 L 104.00000,222.00000 L 105.00000,222.00000 L 105.00000,221.00000 L 105.00000,220.00000 L 106.00000,220.00000 L 106.00000,219.00000 L 106.00000,218.00000 L 107.00000,217.00000 L 107.00000,216.00000 L 108.00000,215.00000 L 108.00000,214.00000 L 109.00000,213.00000 L 109.00000,212.00000 L 109.00000,211.00000 L 110.00000,211.00000 L 110.00000,210.00000 L 110.00000,209.00000 L 111.00000,209.00000 L 111.00000,208.00000 L 111.00000,207.00000 L 112.00000,207.00000 L 112.00000,206.00000 L 112.00000,205.00000 L 113.00000,204.00000 L 113.00000,203.00000 L 114.00000,203.00000 L 114.00000,202.00000 L 114.00000,201.00000 L 115.00000,200.00000 L 115.00000,199.00000 L 116.00000,199.00000 L 116.00000,198.00000 L 116.00000,197.00000 L 117.00000,196.00000 L 117.00000,195.00000 L 118.00000,194.00000 L 118.00000,193.00000 L 119.00000,192.00000 L 119.00000,191.00000 L 120.00000,190.00000 L 120.00000,189.00000 L 121.00000,188.00000 L 121.00000,187.00000 L 122.00000,186.00000 L 122.00000,185.00000 L 123.00000,184.00000 L 123.00000,183.00000 L 124.00000,182.00000 L 124.00000,181.00000 L 125.00000,181.00000 L 125.00000,180.00000 L 125.00000,179.00000 L 126.00000,179.00000 L 126.00000,178.00000 L 126.00000,177.00000 L 127.00000,177.00000 L 127.00000,176.00000 L 128.00000,175.00000 L 128.00000,174.00000 L 129.00000,173.00000 L 129.00000,172.00000 L 130.00000,171.00000 L 131.00000,170.00000 L 131.00000,169.00000 L 132.00000,168.00000 L 132.00000,167.00000 L 133.00000,166.00000 L 134.00000,165.00000 L 134.00000,164.00000 L 135.00000,163.00000 L 136.00000,162.00000 L 136.00000,161.00000 L 137.00000,161.00000 L 137.00000,160.00000 L 137.00000,159.00000 L 138.00000,159.00000 L 138.00000,158.00000 L 139.00000,158.00000 L 139.00000,157.00000 L 140.00000,156.00000 L 140.00000,155.00000 L 141.00000,155.00000 L 141.00000,154.00000 L 142.00000,154.00000 L 142.00000,153.00000 L 143.00000,153.00000 L 143.00000,152.00000 L 144.00000,152.00000 L 144.00000,151.00000 L 145.00000,151.00000 L 145.00000,150.00000 L 146.00000,149.00000 L 147.00000,148.00000 L 148.00000,148.00000 L 148.00000,147.00000 L 149.00000,147.00000 L 149.00000,146.00000 L 150.00000,146.00000 L 150.00000,145.00000 L 151.00000,145.00000 L 152.00000,144.00000 L 153.00000,144.00000 L 153.00000,143.00000 L 154.00000,143.00000 L 155.00000,142.00000 L 156.00000,142.00000 L 157.00000,142.00000 L 157.00000,141.00000 L 158.00000,141.00000 L 159.00000,141.00000 L 160.00000,141.00000 L 160.00000,140.00000 L 161.00000,140.00000 L 162.00000,140.00000 L 163.00000,140.00000 L 164.00000,140.00000 L 165.00000,140.00000 L 166.00000,140.00000 L 167.00000,140.00000 L 168.00000,140.00000 L 168.00000,141.00000 L 169.00000,141.00000 L 170.00000,141.00000 L 171.00000,141.00000 L 172.00000,142.00000 L 173.00000,142.00000 L 174.00000,142.00000 L 174.00000,143.00000 L 175.00000,143.00000 L 176.00000,144.00000 L 177.00000,144.00000 L 177.00000,145.00000 L 178.00000,145.00000 L 179.00000,146.00000 L 180.00000,146.00000 L 180.00000,147.00000 L 181.00000,147.00000 L 181.00000,148.00000 L 182.00000,148.00000 L 182.00000,149.00000 L 183.00000,149.00000 L 183.00000,150.00000 L 184.00000,150.00000 L 184.00000,151.00000 L 185.00000,151.00000 L 185.00000,152.00000 L 186.00000,152.00000 L 186.00000,153.00000 L 187.00000,153.00000 L 187.00000,154.00000 L 188.00000,154.00000 L 188.00000,155.00000 L 189.00000,155.00000 L 189.00000,156.00000 L 190.00000,157.00000 L 191.00000,158.00000 L 191.00000,159.00000 L 192.00000,159.00000 L 192.00000,160.00000 L 193.00000,160.00000 L 193.00000,161.00000 L 194.00000,162.00000 L 194.00000,163.00000 L 195.00000,163.00000 L 195.00000,164.00000 L 196.00000,164.00000 L 196.00000,165.00000 L 197.00000,166.00000 L 197.00000,167.00000 L 198.00000,167.00000 L 198.00000,168.00000 L 199.00000,168.00000 L 199.00000,169.00000 L 200.00000,170.00000 L 200.00000,171.00000 L 201.00000,171.00000 L 201.00000,172.00000 L 202.00000,173.00000 L 202.00000,174.00000 L 203.00000,174.00000 L 203.00000,175.00000 L 204.00000,176.00000 L 204.00000,177.00000 L 205.00000,177.00000 L 205.00000,178.00000 L 206.00000,179.00000 L 206.00000,180.00000 L 207.00000,180.00000 L 207.00000,181.00000 L 208.00000,182.00000 L 208.00000,183.00000 L 209.00000,183.00000 L 209.00000,184.00000 L 209.00000,185.00000 L 210.00000,185.00000 L 210.00000,186.00000 L 211.00000,186.00000 L 211.00000,187.00000 L 212.00000,188.00000 L 212.00000,189.00000 L 213.00000,189.00000 L 213.00000,190.00000 L 214.00000,191.00000 L 214.00000,192.00000 L 215.00000,192.00000 L 215.00000,193.00000 L 216.00000,193.00000 L 216.00000,194.00000 L 216.00000,195.00000 L 217.00000,195.00000 L 217.00000,196.00000 L 218.00000,197.00000 L 219.00000,198.00000 L 219.00000,199.00000 L 220.00000,199.00000 L 220.00000,200.00000 L 220.00000,201.00000 L 221.00000,201.00000 L 221.00000,202.00000 L 222.00000,202.00000 L 222.00000,203.00000 L 223.00000,204.00000 L 223.00000,205.00000 L 224.00000,205.00000 L 224.00000,206.00000 L 225.00000,206.00000 L 225.00000,207.00000 L 226.00000,207.00000 L 226.00000,208.00000 L 227.00000,209.00000 L 228.00000,210.00000 L 228.00000,211.00000 L 229.00000,211.00000 L 229.00000,212.00000 L 230.00000,212.00000 L 230.00000,213.00000 L 231.00000,213.00000 L 231.00000,214.00000 L 232.00000,214.00000 L 232.00000,215.00000 L 233.00000,216.00000 L 234.00000,216.00000 L 234.00000,217.00000 L 235.00000,218.00000 L 236.00000,218.00000 L 236.00000,219.00000 L 237.00000,219.00000 L 237.00000,220.00000 L 238.00000,220.00000 L 238.00000,221.00000 L 239.00000,221.00000 L 239.00000,222.00000 L 240.00000,222.00000 L 241.00000,223.00000 L 242.00000,223.00000 L 242.00000,224.00000 L 243.00000,224.00000 L 244.00000,225.00000 L 245.00000,225.00000 L 246.00000,226.00000 L 247.00000,226.00000 L 248.00000,226.00000 L 248.00000,227.00000 L 249.00000,227.00000 L 250.00000,227.00000 L 251.00000,227.00000 L 251.00000,228.00000 L 252.00000,228.00000 L 253.00000,228.00000 L 254.00000,228.00000 L 255.00000,228.00000 L 256.00000,228.00000 L 257.00000,228.00000 L 258.00000,228.00000 L 259.00000,228.00000 L 260.00000,228.00000 L 260.00000,227.00000 L 261.00000,227.00000 L 262.00000,227.00000 L 263.00000,227.00000 L 264.00000,227.00000 L 264.00000,226.00000 L 265.00000,226.00000 L 266.00000,226.00000 L 266.00000,225.00000 L 267.00000,225.00000 L 268.00000,225.00000 L 268.00000,224.00000 L 269.00000,224.00000 L 270.00000,224.00000 L 270.00000,223.00000 L 271.00000,223.00000 L 271.00000,222.00000 L 272.00000,222.00000 L 273.00000,222.00000 L 273.00000,221.00000 L 274.00000,221.00000 L 274.00000,220.00000 L 275.00000,220.00000 L 276.00000,219.00000 L 277.00000,218.00000 L 278.00000,217.00000 L 279.00000,217.00000 L 279.00000,216.00000 L 280.00000,216.00000 L 280.00000,215.00000 L 281.00000,215.00000 L 281.00000,214.00000 L 282.00000,214.00000 L 282.00000,213.00000 L 283.00000,213.00000 L 283.00000,212.00000 L 284.00000,211.00000 L 285.00000,211.00000 L 285.00000,210.00000 L 286.00000,209.00000 L 286.00000,208.00000 L 287.00000,208.00000 L 287.00000,207.00000 L 288.00000,207.00000 L 288.00000,206.00000 L 289.00000,206.00000 L 289.00000,205.00000 L 290.00000,205.00000 L 290.00000,204.00000 L 291.00000,204.00000 L 291.00000,203.00000 L 292.00000,202.00000 L 293.00000,201.00000 L 293.00000,200.00000 L 294.00000,200.00000 L 294.00000,199.00000 L 295.00000,199.00000 L 295.00000,198.00000 L 296.00000,198.00000 L 296.00000,197.00000 L 297.00000,196.00000 L 297.00000,195.00000 L 298.00000,195.00000 L 298.00000,194.00000 L 299.00000,194.00000 L 299.00000,193.00000 L 300.00000,193.00000 L 300.00000,192.00000 L 300.00000,191.00000 L 301.00000,191.00000 L 301.00000,190.00000 L 302.00000,190.00000 L 302.00000,189.00000 L 303.00000,189.00000 L 303.00000,188.00000 L 304.00000,187.00000 L 305.00000,186.00000 L 305.00000,185.00000 L 306.00000,185.00000 L 306.00000,184.00000 L 307.00000,184.00000 L 307.00000,183.00000 L 308.00000,183.00000 L 308.00000,182.00000 L 309.00000,181.00000 L 310.00000,180.00000 L 311.00000,179.00000 L 311.00000,178.00000 L 312.00000,178.00000 L 312.00000,177.00000 L 313.00000,177.00000 L 313.00000,176.00000 L 314.00000,176.00000 L 314.00000,175.00000 L 315.00000,175.00000 L 315.00000,174.00000 L 316.00000,174.00000 L 316.00000,173.00000 L 317.00000,173.00000 L 317.00000,172.00000 L 318.00000,172.00000 L 318.00000,171.00000 L 319.00000,171.00000 L 319.00000,170.00000 L 320.00000,170.00000 L 320.00000,169.00000 L 321.00000,169.00000 L 321.00000,168.00000 L 322.00000,168.00000 L 322.00000,167.00000 L 323.00000,167.00000 L 324.00000,166.00000 L 325.00000,166.00000 L 325.00000,165.00000 L 326.00000,165.00000 L 326.00000,164.00000 L 327.00000,164.00000 L 328.00000,164.00000 L 328.00000,163.00000 L 329.00000,163.00000 L 329.00000,162.00000 L 330.00000,162.00000 L 331.00000,162.00000 L 331.00000,161.00000 L 332.00000,161.00000 L 333.00000,161.00000 L 333.00000,160.00000 L 334.00000,160.00000 L 335.00000,160.00000 L 336.00000,159.00000 L 337.00000,159.00000 L 338.00000,159.00000 L 339.00000,159.00000 L 339.00000,158.00000 L 340.00000,158.00000 L 341.00000,158.00000 L 342.00000,158.00000 L 343.00000,158.00000 L 344.00000,158.00000 L 345.00000,158.00000 L 346.00000,158.00000 L 347.00000,158.00000 L 348.00000,158.00000 L 349.00000,158.00000 L 349.00000,159.00000 L 350.00000,159.00000 L 351.00000,159.00000 L 352.00000,159.00000 L 353.00000,159.00000 L 353.00000,160.00000 L 354.00000,160.00000 L 355.00000,160.00000 L 356.00000,161.00000 L 357.00000,161.00000 L 358.00000,162.00000 L 359.00000,162.00000 L 359.00000,163.00000 L 360.00000,163.00000 L 361.00000,163.00000 L 361.00000,164.00000 L 362.00000,164.00000 L 363.00000,165.00000 L 364.00000,165.00000 L 364.00000,166.00000 L 365.00000,166.00000 L 365.00000,167.00000 L 366.00000,167.00000 L 366.00000,168.00000 L 367.00000,168.00000 L 368.00000,168.00000 L 368.00000,169.00000 L 369.00000,169.00000 L 369.00000,170.00000 L 370.00000,170.00000 L 370.00000,171.00000 L 371.00000,171.00000 L 371.00000,172.00000 L 372.00000,172.00000 L 372.00000,173.00000 L 373.00000,173.00000 L 373.00000,174.00000 L 374.00000,174.00000 L 374.00000,175.00000 L 375.00000,175.00000 L 376.00000,176.00000 L 376.00000,177.00000 L 377.00000,177.00000 L 377.00000,178.00000 L 378.00000,178.00000 L 378.00000,179.00000 L 379.00000,179.00000 L 379.00000,180.00000 L 380.00000,180.00000 L 380.00000,181.00000 L 381.00000,181.00000 L 381.00000,182.00000 L 382.00000,182.00000 L 382.00000,183.00000 L 383.00000,183.00000 L 383.00000,184.00000 L 384.00000,184.00000 L 384.00000,185.00000 L 385.00000,185.00000 L 385.00000,186.00000 L 386.00000,186.00000 L 386.00000,187.00000 L 387.00000,188.00000 L 388.00000,189.00000 L 389.00000,190.00000 L 390.00000,191.00000 L 391.00000,192.00000 L 391.00000,193.00000 L 392.00000,193.00000 L 392.00000,194.00000 L 393.00000,194.00000 L 393.00000,195.00000 L 394.00000,195.00000 L 394.00000,196.00000 L 395.00000,196.00000 L 395.00000,197.00000 L 396.00000,197.00000 L 396.00000,198.00000 L 397.00000,198.00000 L 397.00000,199.00000 L 398.00000,199.00000 L 398.00000,200.00000 L 399.00000,200.00000 L 399.00000,201.00000 L 400.00000,201.00000 L 400.00000,202.00000 L 401.00000,202.00000 L 401.00000,203.00000 L 402.00000,203.00000 L 402.00000,204.00000 L 403.00000,204.00000 L 403.00000,205.00000 L 404.00000,205.00000 L 405.00000,206.00000 L 406.00000,207.00000 L 407.00000,208.00000 L 408.00000,208.00000 L 408.00000,209.00000 L 409.00000,209.00000 L 409.00000,210.00000 L 410.00000,210.00000 L 411.00000,211.00000 L 412.00000,211.00000 L 412.00000,212.00000 L 413.00000,212.00000 L 414.00000,213.00000 L 415.00000,213.00000 L 415.00000,214.00000 L 416.00000,214.00000 L 417.00000,214.00000 L 417.00000,215.00000 L 418.00000,215.00000 L 419.00000,215.00000 L 419.00000,216.00000 L 420.00000,216.00000 L 421.00000,216.00000 L 422.00000,217.00000 L 423.00000,217.00000 L 424.00000,217.00000 L 425.00000,217.00000 L 425.00000,218.00000 L 426.00000,218.00000 L 427.00000,218.00000 L 428.00000,218.00000 L 429.00000,218.00000 L 430.00000,218.00000 L 431.00000,218.00000 L 432.00000,218.00000 L 433.00000,218.00000 L 434.00000,218.00000 L 435.00000,218.00000 L 436.00000,218.00000 L 437.00000,218.00000 L 438.00000,218.00000 L 438.00000,217.00000 L 439.00000,217.00000 L 440.00000,217.00000 L 441.00000,217.00000 L 442.00000,216.00000 L 443.00000,216.00000 L 444.00000,216.00000 L 444.00000,215.00000 L 445.00000,215.00000 L 446.00000,215.00000 L 446.00000,214.00000 L 447.00000,214.00000 L 448.00000,214.00000 L 448.00000,213.00000 L 449.00000,213.00000 L 450.00000,213.00000 L 450.00000,212.00000 L 451.00000,212.00000 L 451.00000,211.00000 L 452.00000,211.00000 L 453.00000,211.00000 L 453.00000,210.00000 L 454.00000,210.00000 L 454.00000,209.00000 L 455.00000,209.00000 L 456.00000,208.00000 L 457.00000,208.00000 L 457.00000,207.00000 L 458.00000,207.00000 L 458.00000,206.00000 L 459.00000,206.00000 L 459.00000,205.00000 L 460.00000,205.00000 L 460.00000,204.00000 L 461.00000,204.00000 L 462.00000,203.00000 L 463.00000,203.00000 L 463.00000,202.00000 L 464.00000,202.00000 L 464.00000,201.00000 L 465.00000,201.00000 L 465.00000,200.00000 L 466.00000,200.00000 L 466.00000,199.00000 L 467.00000,199.00000 L 467.00000,198.00000 L 468.00000,198.00000 L 468.00000,197.00000 L 469.00000,197.00000 L 469.00000,196.00000 L 470.00000,196.00000 L 470.00000,195.00000 L 471.00000,195.00000 L 471.00000,194.00000 L 472.00000,194.00000 L 472.00000,193.00000 L 473.00000,193.00000 L 473.00000,192.00000 L 474.00000,192.00000 L 474.00000,191.00000 L 475.00000,191.00000 L 476.00000,190.00000 L 476.00000,189.00000 L 477.00000,189.00000 L 477.00000,188.00000 L 478.00000,188.00000 L 479.00000,187.00000 L 480.00000,186.00000 L 480.00000,185.00000 L 481.00000,185.00000 L 482.00000,184.00000 L 483.00000,183.00000 L 484.00000,182.00000 L 485.00000,182.00000 L 485.00000,181.00000 L 486.00000,181.00000 L 486.00000,180.00000 L 487.00000,180.00000 L 487.00000,179.00000 L 488.00000,179.00000 L 488.00000,178.00000 L 489.00000,178.00000 L 490.00000,177.00000 L 491.00000,176.00000 L 492.00000,176.00000 L 492.00000,175.00000 L 493.00000,175.00000 L 493.00000,174.00000 L 494.00000,174.00000 L 494.00000,173.00000 L 495.00000,173.00000 L 496.00000,173.00000 L 496.00000,172.00000 L 497.00000,172.00000 L 497.00000,171.00000 L 498.00000,171.00000 L 499.00000,171.00000 L 499.00000,170.00000 L 500.00000,170.00000 L 501.00000,169.00000 L 502.00000,169.00000 L 503.00000,168.00000 L 504.00000,168.00000 L 505.00000,167.00000 L 506.00000,167.00000 L 507.00000,167.00000 L 507.00000,166.00000 L 508.00000,166.00000 L 509.00000,166.00000 L 510.00000,166.00000 L 510.00000,165.00000 L 511.00000,165.00000 L 512.00000,165.00000 L 513.00000,165.00000 L 514.00000,165.00000 L 515.00000,165.00000 L 515.00000,164.00000 L 516.00000,164.00000 L 517.00000,164.00000 L 518.00000,164.00000 L 519.00000,164.00000 L 520.00000,164.00000 L 521.00000,164.00000 L 522.00000,164.00000 L 522.00000,165.00000 L 523.00000,165.00000 L 524.00000,165.00000 L 525.00000,165.00000 L 526.00000,165.00000 L 527.00000,165.00000 L 527.00000,166.00000 L 528.00000,166.00000 L 529.00000,166.00000 L 530.00000,166.00000 L 530.00000,167.00000 L 531.00000,167.00000 L 532.00000,167.00000 L 533.00000,168.00000 L 534.00000,168.00000 L 534.00000,169.00000 L 535.00000,169.00000 L 536.00000,169.00000 L 536.00000,170.00000 L 537.00000,170.00000 L 538.00000,170.00000 L 538.00000,171.00000 L 539.00000,171.00000 L 540.00000,172.00000 L 541.00000,172.00000 L 541.00000,173.00000 L 542.00000,173.00000 L 543.00000,174.00000 L 544.00000,174.00000 L 544.00000,175.00000 L 545.00000,175.00000 L 545.00000,176.00000 L 546.00000,176.00000 L 547.00000,176.00000 L 547.00000,177.00000 L 548.00000,177.00000 L 548.00000,178.00000 L 549.00000,178.00000 L 549.00000,179.00000 L 550.00000,179.00000 L 551.00000,180.00000 L 552.00000,181.00000 L 553.00000,181.00000 L 553.00000,182.00000 L 554.00000,182.00000 L 554.00000,183.00000 L 555.00000,183.00000 L 555.00000,184.00000 L 556.00000,184.00000 L 556.00000,185.00000 L 557.00000,185.00000 L 557.00000,186.00000 L 558.00000,186.00000 L 559.00000,187.00000 L 560.00000,188.00000 L 561.00000,189.00000 L 562.00000,189.00000 L 562.00000,190.00000 L 563.00000,190.00000 L 563.00000,191.00000 L 564.00000,191.00000 L 564.00000,192.00000 L 565.00000,192.00000 L 565.00000,193.00000 L 566.00000,193.00000 L 567.00000,194.00000 L 568.00000,195.00000 L 569.00000,196.00000 L 570.00000,196.00000 L 570.00000,197.00000 L 571.00000,197.00000 L 571.00000,198.00000 L 572.00000,198.00000 L 572.00000,199.00000 L 573.00000,199.00000 L 574.00000,200.00000 L 575.00000,201.00000"
       id="path702"
       style="stroke-dasharray:2.0000000,2.0000000;stroke-dashoffset:0.0000000;stroke-width:2.0000000;stroke-miterlimit:4.0000000;" />
  </g>
  <g
     style="color:#0000ff;fill:none;stroke:currentColor;stroke-width:1.0000000"
     id="g703"
     transform="translate(13.12640,0.000000)" />
  <path
     d="M 40.126402,462.00000 L 588.12640,462.00000 L 588.12640,54.000000 L 40.126402,54.000000 L 40.126402,462.00000"
     id="path705"
     style="color:#000000;fill:none;stroke:currentColor;stroke-width:1.0000000" />
</svg>
